<?xml version="1.0" encoding="UTF-8" standalone="no"?>
<!-- Created with Inkscape (http://www.inkscape.org/) -->

<svg
   width="210mm"
   height="297mm"
   viewBox="0 0 210 297"
   version="1.1"
   id="svg5"
   inkscape:version="1.2 (dc2aedaf03, 2022-05-15)"
   sodipodi:docname="env_bayesian_net.svg"
   xmlns:inkscape="http://www.inkscape.org/namespaces/inkscape"
   xmlns:sodipodi="http://sodipodi.sourceforge.net/DTD/sodipodi-0.dtd"
   xmlns="http://www.w3.org/2000/svg"
   xmlns:svg="http://www.w3.org/2000/svg">
  <sodipodi:namedview
     id="namedview7"
     pagecolor="#ffffff"
     bordercolor="#000000"
     borderopacity="0.25"
     inkscape:showpageshadow="2"
     inkscape:pageopacity="0.0"
     inkscape:pagecheckerboard="0"
     inkscape:deskcolor="#d1d1d1"
     inkscape:document-units="mm"
     showgrid="false"
     inkscape:zoom="1.0507202"
     inkscape:cx="268.38734"
     inkscape:cy="371.17398"
     inkscape:window-width="1920"
     inkscape:window-height="1015"
     inkscape:window-x="0"
     inkscape:window-y="4"
     inkscape:window-maximized="1"
     inkscape:current-layer="layer1" />
  <defs
     id="defs2">
    <marker
       style="overflow:visible"
       id="Arrow2"
       refX="0"
       refY="0"
       orient="auto-start-reverse"
       inkscape:stockid="Arrow2"
       markerWidth="7.6999998"
       markerHeight="5.5999999"
       viewBox="0 0 7.7 5.6"
       inkscape:isstock="true"
       inkscape:collect="always"
       preserveAspectRatio="xMidYMid">
      <path
         transform="scale(0.7)"
         d="M -2,-4 9,0 -2,4 c 2,-2.33 2,-5.66 0,-8 z"
         style="fill:context-stroke;fill-rule:evenodd;stroke:none"
         id="arrow2L" />
    </marker>
    <pattern
       patternUnits="userSpaceOnUse"
       width="44.449129"
       height="17.698036"
       patternTransform="translate(13.213853,13.097799)"
       id="pattern5927">
      <rect
         style="fill:#0082ab;fill-opacity:1;stroke:#0082ab;stroke-width:1.00157;stroke-opacity:0.329412"
         id="rect3399"
         width="43.447559"
         height="16.696465"
         x="0.50078553"
         y="0.50078553" />
    </pattern>
    <clipPath
       id="clip-0">
      <path
         clip-rule="nonzero"
         d="M 4,1 H 9 V 5.785156 H 4 Z m 0,0"
         id="path12" />
    </clipPath>
    <clipPath
       id="clipPath375">
      <path
         clip-rule="nonzero"
         d="M 5,1 H 8 V 5.785156 H 5 Z m 0,0"
         id="path373" />
    </clipPath>
    <clipPath
       id="clipPath462">
      <path
         clip-rule="nonzero"
         d="m 6,8 h 4 v 5.0625 H 6 Z m 0,0"
         id="path18" />
    </clipPath>
    <clipPath
       id="clipPath584">
      <path
         clip-rule="nonzero"
         d="m 6,8 h 4 v 5.0625 H 6 Z m 0,0"
         id="path21" />
    </clipPath>
    <clipPath
       id="clipPath740">
      <path
         clip-rule="nonzero"
         d="m 6,8 h 4 v 5.0625 H 6 Z m 0,0"
         id="path738" />
    </clipPath>
    <clipPath
       id="clip-0-6">
      <path
         clip-rule="nonzero"
         d="M 4,1 H 9 V 5.785156 H 4 Z m 0,0"
         id="path12-7" />
    </clipPath>
    <clipPath
       id="clipPath3422">
      <path
         clip-rule="nonzero"
         d="m 12,17 h 6 v 9.898438 h -6 z m 0,0"
         id="path3420" />
    </clipPath>
    <clipPath
       id="clipPath4300">
      <path
         clip-rule="nonzero"
         d="m 10,14 h 5 v 8.527344 h -5 z m 0,0"
         id="path4298" />
    </clipPath>
    <clipPath
       id="clipPath5226">
      <path
         clip-rule="nonzero"
         d="m 8,2 h 6 V 9.996094 H 8 Z m 0,0"
         id="path5224" />
    </clipPath>
    <clipPath
       id="clipPath6896">
      <path
         clip-rule="nonzero"
         d="m 235,16 h 5 v 8.101562 h -5 z m 0,0"
         id="path6894" />
    </clipPath>
    <marker
       style="overflow:visible"
       id="Arrow2-8"
       refX="0"
       refY="0"
       orient="auto-start-reverse"
       inkscape:stockid="Arrow2"
       markerWidth="7.6999998"
       markerHeight="5.5999999"
       viewBox="0 0 7.7 5.6"
       inkscape:isstock="true"
       inkscape:collect="always"
       preserveAspectRatio="xMidYMid">
      <path
         transform="scale(0.7)"
         d="M -2,-4 9,0 -2,4 c 2,-2.33 2,-5.66 0,-8 z"
         style="fill:context-stroke;fill-rule:evenodd;stroke:none"
         id="arrow2L-7" />
    </marker>
    <marker
       style="overflow:visible"
       id="Arrow2-2"
       refX="0"
       refY="0"
       orient="auto-start-reverse"
       inkscape:stockid="Arrow2"
       markerWidth="7.6999998"
       markerHeight="5.5999999"
       viewBox="0 0 7.7 5.6"
       inkscape:isstock="true"
       inkscape:collect="always"
       preserveAspectRatio="xMidYMid">
      <path
         transform="scale(0.7)"
         d="M -2,-4 9,0 -2,4 c 2,-2.33 2,-5.66 0,-8 z"
         style="fill:context-stroke;fill-rule:evenodd;stroke:none"
         id="arrow2L-0" />
    </marker>
    <marker
       style="overflow:visible"
       id="Arrow2-3-2"
       refX="0"
       refY="0"
       orient="auto-start-reverse"
       inkscape:stockid="Arrow2"
       markerWidth="7.6999998"
       markerHeight="5.5999999"
       viewBox="0 0 7.7 5.6"
       inkscape:isstock="true"
       inkscape:collect="always"
       preserveAspectRatio="xMidYMid">
      <path
         transform="scale(0.7)"
         d="M -2,-4 9,0 -2,4 c 2,-2.33 2,-5.66 0,-8 z"
         style="fill:context-stroke;fill-rule:evenodd;stroke:none"
         id="arrow2L-75-8" />
    </marker>
    <marker
       style="overflow:visible"
       id="Arrow2-1"
       refX="0"
       refY="0"
       orient="auto-start-reverse"
       inkscape:stockid="Arrow2"
       markerWidth="7.6999998"
       markerHeight="5.5999999"
       viewBox="0 0 7.7 5.6"
       inkscape:isstock="true"
       inkscape:collect="always"
       preserveAspectRatio="xMidYMid">
      <path
         transform="scale(0.7)"
         d="M -2,-4 9,0 -2,4 c 2,-2.33 2,-5.66 0,-8 z"
         style="fill:context-stroke;fill-rule:evenodd;stroke:none"
         id="arrow2L-06" />
    </marker>
    <marker
       style="overflow:visible"
       id="Arrow2-0"
       refX="0"
       refY="0"
       orient="auto-start-reverse"
       inkscape:stockid="Arrow2"
       markerWidth="7.6999998"
       markerHeight="5.5999999"
       viewBox="0 0 7.7 5.6"
       inkscape:isstock="true"
       inkscape:collect="always"
       preserveAspectRatio="xMidYMid">
      <path
         transform="scale(0.7)"
         d="M -2,-4 9,0 -2,4 c 2,-2.33 2,-5.66 0,-8 z"
         style="fill:context-stroke;fill-rule:evenodd;stroke:none"
         id="arrow2L-6" />
    </marker>
    <marker
       style="overflow:visible"
       id="Arrow2-2-5"
       refX="0"
       refY="0"
       orient="auto-start-reverse"
       inkscape:stockid="Arrow2"
       markerWidth="7.6999998"
       markerHeight="5.5999999"
       viewBox="0 0 7.7 5.6"
       inkscape:isstock="true"
       inkscape:collect="always"
       preserveAspectRatio="xMidYMid">
      <path
         transform="scale(0.7)"
         d="M -2,-4 9,0 -2,4 c 2,-2.33 2,-5.66 0,-8 z"
         style="fill:context-stroke;fill-rule:evenodd;stroke:none"
         id="arrow2L-0-5" />
    </marker>
    <marker
       style="overflow:visible"
       id="Arrow2-8-4"
       refX="0"
       refY="0"
       orient="auto-start-reverse"
       inkscape:stockid="Arrow2"
       markerWidth="7.6999998"
       markerHeight="5.5999999"
       viewBox="0 0 7.7 5.6"
       inkscape:isstock="true"
       inkscape:collect="always"
       preserveAspectRatio="xMidYMid">
      <path
         transform="scale(0.7)"
         d="M -2,-4 9,0 -2,4 c 2,-2.33 2,-5.66 0,-8 z"
         style="fill:context-stroke;fill-rule:evenodd;stroke:none"
         id="arrow2L-7-7" />
    </marker>
    <marker
       style="overflow:visible"
       id="Arrow2-3-2-6"
       refX="0"
       refY="0"
       orient="auto-start-reverse"
       inkscape:stockid="Arrow2"
       markerWidth="7.6999998"
       markerHeight="5.5999999"
       viewBox="0 0 7.7 5.6"
       inkscape:isstock="true"
       inkscape:collect="always"
       preserveAspectRatio="xMidYMid">
      <path
         transform="scale(0.7)"
         d="M -2,-4 9,0 -2,4 c 2,-2.33 2,-5.66 0,-8 z"
         style="fill:context-stroke;fill-rule:evenodd;stroke:none"
         id="arrow2L-75-8-5" />
    </marker>
    <marker
       style="overflow:visible"
       id="Arrow2-0-7"
       refX="0"
       refY="0"
       orient="auto-start-reverse"
       inkscape:stockid="Arrow2"
       markerWidth="7.6999998"
       markerHeight="5.5999999"
       viewBox="0 0 7.7 5.6"
       inkscape:isstock="true"
       inkscape:collect="always"
       preserveAspectRatio="xMidYMid">
      <path
         transform="scale(0.7)"
         d="M -2,-4 9,0 -2,4 c 2,-2.33 2,-5.66 0,-8 z"
         style="fill:context-stroke;fill-rule:evenodd;stroke:none"
         id="arrow2L-6-4" />
    </marker>
    <marker
       style="overflow:visible"
       id="Arrow2-0-7-6"
       refX="0"
       refY="0"
       orient="auto-start-reverse"
       inkscape:stockid="Arrow2"
       markerWidth="7.6999998"
       markerHeight="5.5999999"
       viewBox="0 0 7.7 5.6"
       inkscape:isstock="true"
       inkscape:collect="always"
       preserveAspectRatio="xMidYMid">
      <path
         transform="scale(0.7)"
         d="M -2,-4 9,0 -2,4 c 2,-2.33 2,-5.66 0,-8 z"
         style="fill:context-stroke;fill-rule:evenodd;stroke:none"
         id="arrow2L-6-4-8" />
    </marker>
    <marker
       style="overflow:visible"
       id="Arrow2-1-8"
       refX="0"
       refY="0"
       orient="auto-start-reverse"
       inkscape:stockid="Arrow2"
       markerWidth="7.6999998"
       markerHeight="5.5999999"
       viewBox="0 0 7.7 5.6"
       inkscape:isstock="true"
       inkscape:collect="always"
       preserveAspectRatio="xMidYMid">
      <path
         transform="scale(0.7)"
         d="M -2,-4 9,0 -2,4 c 2,-2.33 2,-5.66 0,-8 z"
         style="fill:context-stroke;fill-rule:evenodd;stroke:none"
         id="arrow2L-06-4" />
    </marker>
    <marker
       style="overflow:visible"
       id="Arrow2-8-6"
       refX="0"
       refY="0"
       orient="auto-start-reverse"
       inkscape:stockid="Arrow2"
       markerWidth="7.6999998"
       markerHeight="5.5999999"
       viewBox="0 0 7.7 5.6"
       inkscape:isstock="true"
       inkscape:collect="always"
       preserveAspectRatio="xMidYMid">
      <path
         transform="scale(0.7)"
         d="M -2,-4 9,0 -2,4 c 2,-2.33 2,-5.66 0,-8 z"
         style="fill:context-stroke;fill-rule:evenodd;stroke:none"
         id="arrow2L-7-6" />
    </marker>
    <marker
       style="overflow:visible"
       id="Arrow2-2-4"
       refX="0"
       refY="0"
       orient="auto-start-reverse"
       inkscape:stockid="Arrow2"
       markerWidth="7.6999998"
       markerHeight="5.5999999"
       viewBox="0 0 7.7 5.6"
       inkscape:isstock="true"
       inkscape:collect="always"
       preserveAspectRatio="xMidYMid">
      <path
         transform="scale(0.7)"
         d="M -2,-4 9,0 -2,4 c 2,-2.33 2,-5.66 0,-8 z"
         style="fill:context-stroke;fill-rule:evenodd;stroke:none"
         id="arrow2L-0-9" />
    </marker>
    <marker
       style="overflow:visible"
       id="Arrow2-3-2-5"
       refX="0"
       refY="0"
       orient="auto-start-reverse"
       inkscape:stockid="Arrow2"
       markerWidth="7.6999998"
       markerHeight="5.5999999"
       viewBox="0 0 7.7 5.6"
       inkscape:isstock="true"
       inkscape:collect="always"
       preserveAspectRatio="xMidYMid">
      <path
         transform="scale(0.7)"
         d="M -2,-4 9,0 -2,4 c 2,-2.33 2,-5.66 0,-8 z"
         style="fill:context-stroke;fill-rule:evenodd;stroke:none"
         id="arrow2L-75-8-0" />
    </marker>
  </defs>
  <g
     inkscape:label="Layer 1"
     inkscape:groupmode="layer"
     id="layer1">
    <path
       style="fill:#550000;fill-opacity:1;stroke:#0082ab;stroke-width:0.704973;stroke-dasharray:none;stroke-opacity:0.329412;marker-end:url(#Arrow2)"
       d="m 45.896501,55.818107 18.008332,-0.08225"
       id="path186"
       inkscape:export-filename="env_bayesian_net.png"
       inkscape:export-xdpi="96"
       inkscape:export-ydpi="96" />
    <path
       style="fill:#550000;fill-opacity:1;stroke:#0082ab;stroke-width:0.704973;stroke-dasharray:none;stroke-opacity:0.329412;marker-end:url(#Arrow2-0)"
       d="M 56.072033,33.920126 68.864006,46.59578"
       id="path186-1" />
    <path
       style="fill:#550000;fill-opacity:1;stroke:#0082ab;stroke-width:0.704973;stroke-dasharray:none;stroke-opacity:0.329412;marker-end:url(#Arrow2-8)"
       d="m 38.505699,62.761843 0.08225,18.008332"
       id="path186-9" />
    <path
       style="fill:#550000;fill-opacity:1;stroke:#0082ab;stroke-width:0.704973;stroke-dasharray:none;stroke-opacity:0.329412;marker-end:url(#Arrow2-2)"
       d="m 41.563538,61.844595 9.075396,15.554548"
       id="path186-2" />
    <path
       style="fill:#550000;fill-opacity:1;stroke:#0082ab;stroke-width:0.704973;stroke-dasharray:none;stroke-opacity:0.329412;marker-end:url(#Arrow2-3-2)"
       d="M 35.601735,61.791934 26.668799,77.428731"
       id="path186-92-9" />
    <path
       style="fill:#550000;fill-opacity:1;stroke:#0082ab;stroke-width:0.415;stroke-dasharray:1.24499893,1.24499893;stroke-dashoffset:0;stroke-opacity:0.329412;marker-end:url(#Arrow2-8-4)"
       d="m 75.930072,62.902795 0.04173,9.136247"
       id="path186-9-6" />
    <path
       style="fill:#550000;fill-opacity:1;stroke:#0082ab;stroke-width:0.415;stroke-dasharray:1.24499655,1.24499655;stroke-dashoffset:0;stroke-opacity:0.329412;marker-end:url(#Arrow2-2-5)"
       d="m 78.861849,61.935136 5.047875,8.651677"
       id="path186-2-9" />
    <path
       style="fill:#550000;fill-opacity:1;stroke:#0082ab;stroke-width:0.415;stroke-dasharray:1.24500098,1.24500098;stroke-dashoffset:0;stroke-opacity:0.329412;marker-end:url(#Arrow2-3-2-6)"
       d="m 73.113848,61.861675 -5.254381,9.197613"
       id="path186-92-9-3" />
    <circle
       style="fill:none;fill-opacity:1;stroke:#ab001f;stroke-width:0.772;stroke-dasharray:none;stroke-opacity:0.99487191"
       id="path8309"
       cx="38.505699"
       cy="55.740364"
       r="7.0214791" />
    <circle
       style="fill:none;fill-opacity:1;stroke:#4700bb;stroke-width:0.772;stroke-dasharray:none;stroke-opacity:0.99487197"
       id="path8309-7"
       cx="20.68824"
       cy="87.431778"
       r="7.0214791" />
    <circle
       style="fill:none;fill-opacity:1;stroke:#4700bb;stroke-width:0.772;stroke-dasharray:none;stroke-opacity:0.99487197"
       id="path8309-7-3"
       cx="38.583443"
       cy="92.438248"
       r="7.0214791" />
    <circle
       style="fill:none;fill-opacity:1;stroke:#00ab25;stroke-width:0.772;stroke-dasharray:none;stroke-opacity:0.99487197"
       id="path8309-7-3-6"
       cx="56.478645"
       cy="87.431778"
       r="7.0214791" />
    <circle
       style="fill:none;fill-opacity:1;stroke:#ab001f;stroke-width:0.772;stroke-dasharray:none;stroke-opacity:0.994872"
       id="path8309-3"
       cx="75.735306"
       cy="55.740364"
       r="7.0214791" />
    <path
       style="fill:#550000;fill-opacity:1;stroke:#0082ab;stroke-width:0.704973;stroke-dasharray:none;stroke-opacity:0.329412;marker-end:url(#Arrow2-1)"
       d="m 83.146131,55.818105 18.008329,-0.08225"
       id="path186-3" />
    <g
       inkscape:label=""
       transform="translate(35.7525,53.609223)"
       id="g8651">
      <g
         fill="#000000"
         fill-opacity="1"
         id="g8643"
         transform="matrix(0.705556,0,0,0.705556,-212.987,-63.1555)">
        <g
           id="g8641"
           transform="translate(301.44901,93.917999)">
          <path
             d="m 1.328125,-0.828125 c 0.53125,-0.578125 0.828125,-0.828125 1.1875,-1.140625 0,0 0.609375,-0.53125 0.96875,-0.890625 C 4.4375,-3.78125 4.65625,-4.265625 4.65625,-4.3125 c 0,-0.09375 -0.09375,-0.09375 -0.109375,-0.09375 -0.078125,0 -0.09375,0.015625 -0.15625,0.109375 -0.296875,0.484375 -0.5,0.640625 -0.734375,0.640625 -0.25,0 -0.359375,-0.15625 -0.515625,-0.328125 -0.1875,-0.21875 -0.359375,-0.421875 -0.6875,-0.421875 -0.75,0 -1.203125,0.921875 -1.203125,1.140625 0,0.046875 0.03125,0.109375 0.109375,0.109375 0.09375,0 0.109375,-0.046875 0.140625,-0.109375 0.1875,-0.46875 0.765625,-0.46875 0.84375,-0.46875 0.203125,0 0.390625,0.0625 0.625,0.140625 0.40625,0.15625 0.515625,0.15625 0.765625,0.15625 -0.359375,0.421875 -1.1875,1.140625 -1.375,1.296875 l -0.90625,0.84375 C 0.78125,-0.625 0.421875,-0.0625 0.421875,0.015625 c 0,0.09375 0.109375,0.09375 0.125,0.09375 0.078125,0 0.09375,-0.015625 0.15625,-0.125 0.234375,-0.359375 0.53125,-0.625 0.859375,-0.625 0.21875,0 0.328125,0.09375 0.578125,0.375 0.15625,0.21875 0.34375,0.375 0.625,0.375 1,0 1.578125,-1.265625 1.578125,-1.53125 0,-0.046875 -0.046875,-0.109375 -0.125,-0.109375 -0.09375,0 -0.109375,0.0625 -0.140625,0.140625 C 3.84375,-0.75 3.203125,-0.5625 2.875,-0.5625 c -0.1875,0 -0.375,-0.0625 -0.578125,-0.125 -0.34375,-0.125 -0.5,-0.171875 -0.703125,-0.171875 -0.015625,0 -0.171875,0 -0.265625,0.03125 z m 0,0"
             id="path8639" />
        </g>
      </g>
      <g
         fill="#000000"
         fill-opacity="1"
         id="g8649"
         transform="matrix(0.705556,0,0,0.705556,-212.987,-63.1555)">
        <g
           id="g8647"
           transform="translate(306.082,95.412003)">
          <path
             d="M 3.59375,-2.21875 C 3.59375,-2.984375 3.5,-3.546875 3.1875,-4.03125 2.96875,-4.34375 2.53125,-4.625 1.984375,-4.625 c -1.625,0 -1.625,1.90625 -1.625,2.40625 0,0.5 0,2.359375 1.625,2.359375 1.609375,0 1.609375,-1.859375 1.609375,-2.359375 z M 1.984375,-0.0625 c -0.328125,0 -0.75,-0.1875 -0.890625,-0.75 C 1,-1.21875 1,-1.796875 1,-2.3125 1,-2.828125 1,-3.359375 1.09375,-3.734375 1.25,-4.28125 1.6875,-4.4375 1.984375,-4.4375 c 0.375,0 0.734375,0.234375 0.859375,0.640625 0.109375,0.375 0.125,0.875 0.125,1.484375 0,0.515625 0,1.03125 -0.09375,1.46875 -0.140625,0.640625 -0.609375,0.78125 -0.890625,0.78125 z m 0,0"
             id="path8645" />
        </g>
      </g>
    </g>
    <g
       inkscape:label=""
       transform="translate(72.98211,53.658833)"
       id="g9486">
      <g
         fill="#000000"
         fill-opacity="1"
         id="g16"
         transform="matrix(0.705556,0,0,0.705556,-212.987,-63.1555)">
        <g
           id="use14"
           transform="translate(301.44901,93.917999)">
          <path
             d="m 1.328125,-0.828125 c 0.53125,-0.578125 0.828125,-0.828125 1.1875,-1.140625 0,0 0.609375,-0.53125 0.96875,-0.890625 C 4.4375,-3.78125 4.65625,-4.265625 4.65625,-4.3125 c 0,-0.09375 -0.09375,-0.09375 -0.109375,-0.09375 -0.078125,0 -0.09375,0.015625 -0.15625,0.109375 -0.296875,0.484375 -0.5,0.640625 -0.734375,0.640625 -0.25,0 -0.359375,-0.15625 -0.515625,-0.328125 -0.1875,-0.21875 -0.359375,-0.421875 -0.6875,-0.421875 -0.75,0 -1.203125,0.921875 -1.203125,1.140625 0,0.046875 0.03125,0.109375 0.109375,0.109375 0.09375,0 0.109375,-0.046875 0.140625,-0.109375 0.1875,-0.46875 0.765625,-0.46875 0.84375,-0.46875 0.203125,0 0.390625,0.0625 0.625,0.140625 0.40625,0.15625 0.515625,0.15625 0.765625,0.15625 -0.359375,0.421875 -1.1875,1.140625 -1.375,1.296875 l -0.90625,0.84375 C 0.78125,-0.625 0.421875,-0.0625 0.421875,0.015625 c 0,0.09375 0.109375,0.09375 0.125,0.09375 0.078125,0 0.09375,-0.015625 0.15625,-0.125 0.234375,-0.359375 0.53125,-0.625 0.859375,-0.625 0.21875,0 0.328125,0.09375 0.578125,0.375 0.15625,0.21875 0.34375,0.375 0.625,0.375 1,0 1.578125,-1.265625 1.578125,-1.53125 0,-0.046875 -0.046875,-0.109375 -0.125,-0.109375 -0.09375,0 -0.109375,0.0625 -0.140625,0.140625 C 3.84375,-0.75 3.203125,-0.5625 2.875,-0.5625 c -0.1875,0 -0.375,-0.0625 -0.578125,-0.125 -0.34375,-0.125 -0.5,-0.171875 -0.703125,-0.171875 -0.015625,0 -0.171875,0 -0.265625,0.03125 z m 0,0"
             id="path26" />
        </g>
      </g>
      <g
         fill="#000000"
         fill-opacity="1"
         id="g20"
         transform="matrix(0.705556,0,0,0.705556,-212.987,-63.1555)">
        <g
           id="use18"
           transform="translate(306.082,95.412003)">
          <path
             d="m 2.328125,-4.4375 c 0,-0.1875 0,-0.1875 -0.203125,-0.1875 -0.453125,0.4375 -1.078125,0.4375 -1.359375,0.4375 v 0.25 c 0.15625,0 0.625,0 1,-0.1875 v 3.546875 c 0,0.234375 0,0.328125 -0.6875,0.328125 H 0.8125 V 0 c 0.125,0 0.984375,-0.03125 1.234375,-0.03125 0.21875,0 1.09375,0.03125 1.25,0.03125 V -0.25 H 3.03125 c -0.703125,0 -0.703125,-0.09375 -0.703125,-0.328125 z m 0,0"
             id="path30" />
        </g>
      </g>
    </g>
    <g
       inkscape:label=""
       transform="translate(15.474084,82.778118)"
       id="g12369">
      <g
         fill="#000000"
         fill-opacity="1"
         id="g22"
         transform="matrix(0.705556,0,0,0.705556,-210.327,-58.931)">
        <g
           id="use20"
           transform="translate(297.80499,93.917999)">
          <path
             d="M 3.328125,-3.015625 C 3.390625,-3.265625 3.625,-4.1875 4.3125,-4.1875 c 0.046875,0 0.296875,0 0.5,0.125 C 4.53125,-4 4.34375,-3.765625 4.34375,-3.515625 c 0,0.15625 0.109375,0.34375 0.375,0.34375 0.21875,0 0.53125,-0.171875 0.53125,-0.578125 0,-0.515625 -0.578125,-0.65625 -0.921875,-0.65625 -0.578125,0 -0.921875,0.53125 -1.046875,0.75 -0.25,-0.65625 -0.78125,-0.75 -1.078125,-0.75 -1.03125,0 -1.609375,1.28125 -1.609375,1.53125 0,0.109375 0.109375,0.109375 0.125,0.109375 0.078125,0 0.109375,-0.03125 0.125,-0.109375 0.34375,-1.0625 1,-1.3125 1.34375,-1.3125 0.1875,0 0.53125,0.09375 0.53125,0.671875 0,0.3125 -0.171875,0.96875 -0.53125,2.375 -0.15625,0.609375 -0.515625,1.03125 -0.953125,1.03125 -0.0625,0 -0.28125,0 -0.5,-0.125 0.25,-0.0625 0.46875,-0.265625 0.46875,-0.546875 0,-0.265625 -0.21875,-0.34375 -0.359375,-0.34375 -0.3125,0 -0.546875,0.25 -0.546875,0.578125 0,0.453125 0.484375,0.65625 0.921875,0.65625 0.671875,0 1.03125,-0.703125 1.046875,-0.75 0.125,0.359375 0.484375,0.75 1.078125,0.75 1.03125,0 1.59375,-1.28125 1.59375,-1.53125 0,-0.109375 -0.078125,-0.109375 -0.109375,-0.109375 -0.09375,0 -0.109375,0.046875 -0.140625,0.109375 -0.328125,1.078125 -1,1.3125 -1.3125,1.3125 -0.390625,0 -0.546875,-0.3125 -0.546875,-0.65625 0,-0.21875 0.046875,-0.4375 0.15625,-0.875 z m 0,0"
             id="path40" />
        </g>
      </g>
      <g
         fill="#000000"
         fill-opacity="1"
         id="g30"
         transform="matrix(0.705556,0,0,0.705556,-210.327,-58.931)">
        <g
           id="use24"
           transform="translate(303.49899,88.742996)">
          <path
             d="M 2.46875,-5.21875 C 1.15625,-4.296875 0.796875,-2.8125 0.796875,-1.75 c 0,0.984375 0.296875,2.515625 1.671875,3.484375 0.0625,0 0.140625,0 0.140625,-0.078125 0,-0.046875 -0.015625,-0.0625 -0.0625,-0.109375 C 1.609375,0.703125 1.28125,-0.46875 1.28125,-1.734375 1.28125,-3.625 2,-4.546875 2.5625,-5.0625 2.59375,-5.09375 2.609375,-5.109375 2.609375,-5.140625 2.609375,-5.21875 2.53125,-5.21875 2.46875,-5.21875 Z m 0,0"
             id="path44" />
        </g>
        <g
           id="use26"
           transform="translate(306.61209,88.742996)">
          <path
             d="M 3.59375,-2.21875 C 3.59375,-2.984375 3.5,-3.546875 3.1875,-4.03125 2.96875,-4.34375 2.53125,-4.625 1.984375,-4.625 c -1.625,0 -1.625,1.90625 -1.625,2.40625 0,0.5 0,2.359375 1.625,2.359375 1.609375,0 1.609375,-1.859375 1.609375,-2.359375 z M 1.984375,-0.0625 c -0.328125,0 -0.75,-0.1875 -0.890625,-0.75 C 1,-1.21875 1,-1.796875 1,-2.3125 1,-2.828125 1,-3.359375 1.09375,-3.734375 1.25,-4.28125 1.6875,-4.4375 1.984375,-4.4375 c 0.375,0 0.734375,0.234375 0.859375,0.640625 0.109375,0.375 0.125,0.875 0.125,1.484375 0,0.515625 0,1.03125 -0.09375,1.46875 -0.140625,0.640625 -0.609375,0.78125 -0.890625,0.78125 z m 0,0"
             id="path48" />
        </g>
        <g
           id="use28"
           transform="translate(310.58368,88.742996)">
          <path
             d="m 0.625,-5.21875 c -0.046875,0 -0.125,0 -0.125,0.078125 0,0.03125 0.015625,0.046875 0.0625,0.109375 0.59375,0.546875 1.265625,1.484375 1.265625,3.28125 0,1.453125 -0.453125,2.5625 -1.203125,3.234375 -0.125,0.125 -0.125,0.125 -0.125,0.171875 0,0.03125 0.015625,0.078125 0.078125,0.078125 0.09375,0 0.75,-0.453125 1.21875,-1.328125 0.296875,-0.578125 0.5,-1.328125 0.5,-2.140625 C 2.296875,-2.71875 2,-4.25 0.625,-5.21875 Z m 0,0"
             id="path52" />
        </g>
      </g>
      <g
         fill="#000000"
         fill-opacity="1"
         id="g34"
         transform="matrix(0.705556,0,0,0.705556,-210.327,-58.931)">
        <g
           id="use32"
           transform="translate(303.49899,96.574997)">
          <path
             d="M 3.59375,-2.21875 C 3.59375,-2.984375 3.5,-3.546875 3.1875,-4.03125 2.96875,-4.34375 2.53125,-4.625 1.984375,-4.625 c -1.625,0 -1.625,1.90625 -1.625,2.40625 0,0.5 0,2.359375 1.625,2.359375 1.609375,0 1.609375,-1.859375 1.609375,-2.359375 z M 1.984375,-0.0625 c -0.328125,0 -0.75,-0.1875 -0.890625,-0.75 C 1,-1.21875 1,-1.796875 1,-2.3125 1,-2.828125 1,-3.359375 1.09375,-3.734375 1.25,-4.28125 1.6875,-4.4375 1.984375,-4.4375 c 0.375,0 0.734375,0.234375 0.859375,0.640625 0.109375,0.375 0.125,0.875 0.125,1.484375 0,0.515625 0,1.03125 -0.09375,1.46875 -0.140625,0.640625 -0.609375,0.78125 -0.890625,0.78125 z m 0,0"
             id="path56" />
        </g>
      </g>
    </g>
    <g
       inkscape:label=""
       transform="translate(33.369287,87.784588)"
       id="g13453">
      <g
         fill="#000000"
         fill-opacity="1"
         id="g25"
         transform="matrix(0.705556,0,0,0.705556,-210.327,-58.931)">
        <g
           id="use23"
           transform="translate(297.80499,93.917999)">
          <path
             d="M 3.328125,-3.015625 C 3.390625,-3.265625 3.625,-4.1875 4.3125,-4.1875 c 0.046875,0 0.296875,0 0.5,0.125 C 4.53125,-4 4.34375,-3.765625 4.34375,-3.515625 c 0,0.15625 0.109375,0.34375 0.375,0.34375 0.21875,0 0.53125,-0.171875 0.53125,-0.578125 0,-0.515625 -0.578125,-0.65625 -0.921875,-0.65625 -0.578125,0 -0.921875,0.53125 -1.046875,0.75 -0.25,-0.65625 -0.78125,-0.75 -1.078125,-0.75 -1.03125,0 -1.609375,1.28125 -1.609375,1.53125 0,0.109375 0.109375,0.109375 0.125,0.109375 0.078125,0 0.109375,-0.03125 0.125,-0.109375 0.34375,-1.0625 1,-1.3125 1.34375,-1.3125 0.1875,0 0.53125,0.09375 0.53125,0.671875 0,0.3125 -0.171875,0.96875 -0.53125,2.375 -0.15625,0.609375 -0.515625,1.03125 -0.953125,1.03125 -0.0625,0 -0.28125,0 -0.5,-0.125 0.25,-0.0625 0.46875,-0.265625 0.46875,-0.546875 0,-0.265625 -0.21875,-0.34375 -0.359375,-0.34375 -0.3125,0 -0.546875,0.25 -0.546875,0.578125 0,0.453125 0.484375,0.65625 0.921875,0.65625 0.671875,0 1.03125,-0.703125 1.046875,-0.75 0.125,0.359375 0.484375,0.75 1.078125,0.75 1.03125,0 1.59375,-1.28125 1.59375,-1.53125 0,-0.109375 -0.078125,-0.109375 -0.109375,-0.109375 -0.09375,0 -0.109375,0.046875 -0.140625,0.109375 -0.328125,1.078125 -1,1.3125 -1.3125,1.3125 -0.390625,0 -0.546875,-0.3125 -0.546875,-0.65625 0,-0.21875 0.046875,-0.4375 0.15625,-0.875 z m 0,0"
             id="path43" />
        </g>
      </g>
      <g
         fill="#000000"
         fill-opacity="1"
         id="g33"
         transform="matrix(0.705556,0,0,0.705556,-210.327,-58.931)">
        <g
           id="use27"
           transform="translate(303.49899,88.742996)">
          <path
             d="M 2.46875,-5.21875 C 1.15625,-4.296875 0.796875,-2.8125 0.796875,-1.75 c 0,0.984375 0.296875,2.515625 1.671875,3.484375 0.0625,0 0.140625,0 0.140625,-0.078125 0,-0.046875 -0.015625,-0.0625 -0.0625,-0.109375 C 1.609375,0.703125 1.28125,-0.46875 1.28125,-1.734375 1.28125,-3.625 2,-4.546875 2.5625,-5.0625 2.59375,-5.09375 2.609375,-5.109375 2.609375,-5.140625 2.609375,-5.21875 2.53125,-5.21875 2.46875,-5.21875 Z m 0,0"
             id="path47" />
        </g>
        <g
           id="use29"
           transform="translate(306.61209,88.742996)">
          <path
             d="m 2.328125,-4.4375 c 0,-0.1875 0,-0.1875 -0.203125,-0.1875 -0.453125,0.4375 -1.078125,0.4375 -1.359375,0.4375 v 0.25 c 0.15625,0 0.625,0 1,-0.1875 v 3.546875 c 0,0.234375 0,0.328125 -0.6875,0.328125 H 0.8125 V 0 c 0.125,0 0.984375,-0.03125 1.234375,-0.03125 0.21875,0 1.09375,0.03125 1.25,0.03125 V -0.25 H 3.03125 c -0.703125,0 -0.703125,-0.09375 -0.703125,-0.328125 z m 0,0"
             id="path51" />
        </g>
        <g
           id="use31"
           transform="translate(310.58368,88.742996)">
          <path
             d="m 0.625,-5.21875 c -0.046875,0 -0.125,0 -0.125,0.078125 0,0.03125 0.015625,0.046875 0.0625,0.109375 0.59375,0.546875 1.265625,1.484375 1.265625,3.28125 0,1.453125 -0.453125,2.5625 -1.203125,3.234375 -0.125,0.125 -0.125,0.125 -0.125,0.171875 0,0.03125 0.015625,0.078125 0.078125,0.078125 0.09375,0 0.75,-0.453125 1.21875,-1.328125 0.296875,-0.578125 0.5,-1.328125 0.5,-2.140625 C 2.296875,-2.71875 2,-4.25 0.625,-5.21875 Z m 0,0"
             id="path55" />
        </g>
      </g>
      <g
         fill="#000000"
         fill-opacity="1"
         id="g37"
         transform="matrix(0.705556,0,0,0.705556,-210.327,-58.931)">
        <g
           id="use35"
           transform="translate(303.49899,96.574997)">
          <path
             d="M 3.59375,-2.21875 C 3.59375,-2.984375 3.5,-3.546875 3.1875,-4.03125 2.96875,-4.34375 2.53125,-4.625 1.984375,-4.625 c -1.625,0 -1.625,1.90625 -1.625,2.40625 0,0.5 0,2.359375 1.625,2.359375 1.609375,0 1.609375,-1.859375 1.609375,-2.359375 z M 1.984375,-0.0625 c -0.328125,0 -0.75,-0.1875 -0.890625,-0.75 C 1,-1.21875 1,-1.796875 1,-2.3125 1,-2.828125 1,-3.359375 1.09375,-3.734375 1.25,-4.28125 1.6875,-4.4375 1.984375,-4.4375 c 0.375,0 0.734375,0.234375 0.859375,0.640625 0.109375,0.375 0.125,0.875 0.125,1.484375 0,0.515625 0,1.03125 -0.09375,1.46875 -0.140625,0.640625 -0.609375,0.78125 -0.890625,0.78125 z m 0,0"
             id="path59" />
        </g>
      </g>
    </g>
    <g
       inkscape:label=""
       transform="translate(53.729544,85.300637)"
       id="g14449">
      <g
         fill="#000000"
         fill-opacity="1"
         id="g14441"
         transform="matrix(0.705556,0,0,0.705556,-212.947,-63.1555)">
        <g
           id="g14439"
           transform="translate(301.51801,93.917999)">
          <path
             d="m 0.875,-0.59375 c -0.03125,0.15625 -0.09375,0.390625 -0.09375,0.4375 0,0.171875 0.140625,0.265625 0.296875,0.265625 0.125,0 0.296875,-0.078125 0.375,-0.28125 C 1.46875,-0.203125 1.796875,-1.5625 1.84375,-1.75 c 0.078125,-0.328125 0.265625,-1.015625 0.3125,-1.296875 0.046875,-0.125 0.328125,-0.59375 0.5625,-0.8125 0.078125,-0.0625 0.375,-0.328125 0.796875,-0.328125 0.265625,0 0.40625,0.125 0.421875,0.125 -0.296875,0.046875 -0.515625,0.28125 -0.515625,0.546875 0,0.15625 0.109375,0.34375 0.375,0.34375 0.265625,0 0.546875,-0.234375 0.546875,-0.59375 0,-0.34375 -0.3125,-0.640625 -0.828125,-0.640625 C 2.875,-4.40625 2.4375,-3.921875 2.25,-3.640625 2.15625,-4.09375 1.796875,-4.40625 1.328125,-4.40625 0.875,-4.40625 0.6875,-4.015625 0.59375,-3.84375 0.421875,-3.5 0.296875,-2.90625 0.296875,-2.875 c 0,0.109375 0.09375,0.109375 0.109375,0.109375 0.109375,0 0.109375,-0.015625 0.171875,-0.234375 0.171875,-0.703125 0.375,-1.1875 0.734375,-1.1875 0.15625,0 0.296875,0.078125 0.296875,0.453125 0,0.21875 -0.03125,0.328125 -0.15625,0.84375 z m 0,0"
             id="path14437" />
        </g>
      </g>
      <g
         fill="#000000"
         fill-opacity="1"
         id="g14447"
         transform="matrix(0.705556,0,0,0.705556,-212.947,-63.1555)">
        <g
           id="g14445"
           transform="translate(306.013,95.412003)">
          <path
             d="M 3.59375,-2.21875 C 3.59375,-2.984375 3.5,-3.546875 3.1875,-4.03125 2.96875,-4.34375 2.53125,-4.625 1.984375,-4.625 c -1.625,0 -1.625,1.90625 -1.625,2.40625 0,0.5 0,2.359375 1.625,2.359375 1.609375,0 1.609375,-1.859375 1.609375,-2.359375 z M 1.984375,-0.0625 c -0.328125,0 -0.75,-0.1875 -0.890625,-0.75 C 1,-1.21875 1,-1.796875 1,-2.3125 1,-2.828125 1,-3.359375 1.09375,-3.734375 1.25,-4.28125 1.6875,-4.4375 1.984375,-4.4375 c 0.375,0 0.734375,0.234375 0.859375,0.640625 0.109375,0.375 0.125,0.875 0.125,1.484375 0,0.515625 0,1.03125 -0.09375,1.46875 -0.140625,0.640625 -0.609375,0.78125 -0.890625,0.78125 z m 0,0"
             id="path14443" />
        </g>
      </g>
    </g>
    <path
       style="fill:#550000;fill-opacity:1;stroke:#0082ab;stroke-width:0.704973;stroke-dasharray:none;stroke-opacity:0.329412;marker-end:url(#Arrow2-8-6)"
       d="m 149.90091,62.761843 0.0823,18.008332"
       id="path186-9-4" />
    <path
       style="fill:#550000;fill-opacity:1;stroke:#0082ab;stroke-width:0.704973;stroke-dasharray:none;stroke-opacity:0.329412;marker-end:url(#Arrow2-2-4)"
       d="m 152.95875,61.844595 9.07539,15.554548"
       id="path186-2-8" />
    <path
       style="fill:#550000;fill-opacity:1;stroke:#0082ab;stroke-width:0.704973;stroke-dasharray:none;stroke-opacity:0.329412;marker-end:url(#Arrow2-3-2-5)"
       d="m 146.99694,61.791934 -8.93293,15.636797"
       id="path186-92-9-7" />
    <circle
       style="fill:none;fill-opacity:1;stroke:#ab001f;stroke-width:0.772;stroke-dasharray:none;stroke-opacity:0.994872"
       id="path8309-1"
       cx="149.90092"
       cy="55.740364"
       r="7.0214791" />
    <circle
       style="fill:none;fill-opacity:1;stroke:#4700bb;stroke-width:0.772;stroke-dasharray:none;stroke-opacity:0.994872"
       id="path8309-7-7"
       cx="132.08347"
       cy="87.431778"
       r="7.0214791" />
    <circle
       style="fill:none;fill-opacity:1;stroke:#4700bb;stroke-width:0.772;stroke-dasharray:none;stroke-opacity:0.994872"
       id="path8309-7-3-2"
       cx="149.97867"
       cy="92.438248"
       r="7.0214791" />
    <circle
       style="fill:none;fill-opacity:1;stroke:#00ab25;stroke-width:0.772;stroke-dasharray:none;stroke-opacity:0.994872"
       id="path8309-7-3-6-7"
       cx="167.87387"
       cy="87.431778"
       r="7.0214791" />
    <path
       id="path15133"
       style="font-variation-settings:normal;opacity:1;fill:none;fill-opacity:1;stroke:#d58900;stroke-width:0.431422;stroke-linecap:butt;stroke-linejoin:miter;stroke-miterlimit:4;stroke-dasharray:none;stroke-dashoffset:0;stroke-opacity:0.99487191;stop-color:#000000;stop-opacity:1"
       d="m 51.154586,25.133664 a 1.815024,0.99774896 0 0 0 -1.270228,0.285398 2.1718715,0.71306749 0 0 0 -1.167405,-0.112256 2.1718715,0.71306749 0 0 0 -2.148395,0.6098 1.4645488,1.0433648 0 0 0 -0.802931,-0.170763 1.4645488,1.0433648 0 0 0 -1.428223,0.815762 1.3477576,0.98404675 0 0 0 -0.314736,-0.02711 1.3477576,0.98404675 0 0 0 -1.347553,0.983672 1.3477576,0.98404675 0 0 0 0.0054,0.08372 0.96305462,0.96283078 0 0 0 -0.748176,0.938483 0.96305462,0.96283078 0 0 0 0.131245,0.484225 0.92676944,1.140427 0 0 0 -0.540861,1.035995 0.92676944,1.140427 0 0 0 0.853925,1.136835 0.99791019,1.1305135 0 0 0 -0.06061,0.385763 0.99791019,1.1305135 0 0 0 0.997708,1.130175 0.99791019,1.1305135 0 0 0 0.211495,-0.02568 1.1300759,1.1281599 0 0 0 1.128952,1.091171 1.1300759,1.1281599 0 0 0 0.504079,-0.118916 1.4872995,0.8672771 0 0 0 1.45163,0.680198 1.4872995,0.8672771 0 0 0 1.004813,-0.227842 1.2814401,0.95279174 0 0 0 1.262286,0.79293 1.2814401,0.95279174 0 0 0 0.996036,-0.353418 1.7774367,0.88488996 0 0 0 1.254344,0.257809 1.7774367,0.88488996 0 0 0 1.431149,-0.361028 1.5538874,1.2361505 0 0 0 1.199172,0.450929 1.5538874,1.2361505 0 0 0 1.550272,-1.154434 1.4595173,1.1778032 0 0 0 0.764059,0.175044 1.4595173,1.1778032 0 0 0 1.459571,-1.177743 1.4595173,1.1778032 0 0 0 -0.0067,-0.112732 1.3857861,1.1579498 0 0 0 1.325401,-1.156337 1.3857861,1.1579498 0 0 0 -0.05141,-0.311559 1.102522,1.5823507 0 0 0 0.771583,-1.508328 1.102522,1.5823507 0 0 0 -0.891542,-1.55304 2.1963175,1.2495661 0 0 0 -1.773888,-1.1121 8.2768127,4.3248323 0 0 0 -0.120795,-0.06897 1.5889062,1.4796282 0 0 0 -1.485903,-0.956558 1.5889062,1.4796282 0 0 0 -0.06897,0.0024 1.720744,0.92031567 0 0 0 -1.57326,-0.547963 1.720744,0.92031567 0 0 0 -0.985168,0.166006 1.815024,0.99774896 0 0 0 -1.516416,-0.449502 z" />
    <g
       inkscape:label=""
       transform="translate(47.56427,27.888239)"
       id="g15773">
      <g
         fill="#000000"
         fill-opacity="1"
         id="g15765"
         transform="matrix(0.705556,0,0,0.705556,-212.752,-63.1555)">
        <g
           id="g15763"
           transform="translate(301.13199,93.917999)">
          <path
             d="M 3.71875,-3.765625 C 3.53125,-4.140625 3.25,-4.40625 2.796875,-4.40625 c -1.15625,0 -2.390625,1.46875 -2.390625,2.921875 0,0.9375 0.546875,1.59375 1.3125,1.59375 0.203125,0 0.703125,-0.046875 1.296875,-0.75 0.078125,0.421875 0.4375,0.75 0.90625,0.75 0.359375,0 0.578125,-0.234375 0.75,-0.546875 0.15625,-0.359375 0.296875,-0.96875 0.296875,-0.984375 0,-0.109375 -0.09375,-0.109375 -0.125,-0.109375 -0.09375,0 -0.109375,0.046875 -0.140625,0.1875 -0.171875,0.640625 -0.34375,1.234375 -0.75,1.234375 -0.28125,0 -0.296875,-0.265625 -0.296875,-0.453125 0,-0.21875 0.015625,-0.3125 0.125,-0.75 C 3.890625,-1.71875 3.90625,-1.828125 4,-2.203125 L 4.359375,-3.59375 c 0.0625,-0.28125 0.0625,-0.296875 0.0625,-0.34375 0,-0.171875 -0.109375,-0.265625 -0.28125,-0.265625 -0.25,0 -0.390625,0.21875 -0.421875,0.4375 z M 3.078125,-1.1875 C 3.015625,-1 3.015625,-0.984375 2.875,-0.8125 2.4375,-0.265625 2.03125,-0.109375 1.75,-0.109375 c -0.5,0 -0.640625,-0.546875 -0.640625,-0.9375 0,-0.5 0.3125,-1.71875 0.546875,-2.1875 0.3125,-0.578125 0.75,-0.953125 1.15625,-0.953125 0.640625,0 0.78125,0.8125 0.78125,0.875 0,0.0625 -0.015625,0.125 -0.03125,0.171875 z m 0,0"
             id="path15761" />
        </g>
      </g>
      <g
         fill="#000000"
         fill-opacity="1"
         id="g15771"
         transform="matrix(0.705556,0,0,0.705556,-212.752,-63.1555)">
        <g
           id="g15769"
           transform="translate(306.39801,95.412003)">
          <path
             d="M 3.59375,-2.21875 C 3.59375,-2.984375 3.5,-3.546875 3.1875,-4.03125 2.96875,-4.34375 2.53125,-4.625 1.984375,-4.625 c -1.625,0 -1.625,1.90625 -1.625,2.40625 0,0.5 0,2.359375 1.625,2.359375 1.609375,0 1.609375,-1.859375 1.609375,-2.359375 z M 1.984375,-0.0625 c -0.328125,0 -0.75,-0.1875 -0.890625,-0.75 C 1,-1.21875 1,-1.796875 1,-2.3125 1,-2.828125 1,-3.359375 1.09375,-3.734375 1.25,-4.28125 1.6875,-4.4375 1.984375,-4.4375 c 0.375,0 0.734375,0.234375 0.859375,0.640625 0.109375,0.375 0.125,0.875 0.125,1.484375 0,0.515625 0,1.03125 -0.09375,1.46875 -0.140625,0.640625 -0.609375,0.78125 -0.890625,0.78125 z m 0,0"
             id="path15767" />
        </g>
      </g>
    </g>
    <path
       style="fill:#550000;fill-opacity:1;stroke:#0082ab;stroke-width:0.704973;stroke-dasharray:none;stroke-opacity:0.329412;marker-end:url(#Arrow2-0-7)"
       d="M 91.824276,34.748153 104.61625,47.423807"
       id="path186-1-5" />
    <path
       id="path15133-2"
       style="font-variation-settings:normal;fill:none;fill-opacity:1;stroke:#d58900;stroke-width:0.431422;stroke-linecap:butt;stroke-linejoin:miter;stroke-miterlimit:4;stroke-dasharray:none;stroke-dashoffset:0;stroke-opacity:0.99487191;stop-color:#000000"
       d="m 86.906826,25.961691 a 1.815024,0.99774896 0 0 0 -1.27022,0.285398 2.1718715,0.71306749 0 0 0 -1.16741,-0.112256 2.1718715,0.71306749 0 0 0 -2.14839,0.6098 1.4645488,1.0433648 0 0 0 -0.80294,-0.170763 1.4645488,1.0433648 0 0 0 -1.42822,0.815762 1.3477576,0.98404675 0 0 0 -0.31473,-0.02711 1.3477576,0.98404675 0 0 0 -1.347557,0.983672 1.3477576,0.98404675 0 0 0 0.0054,0.08372 0.96305462,0.96283078 0 0 0 -0.748176,0.938483 0.96305462,0.96283078 0 0 0 0.131245,0.484225 0.92676944,1.140427 0 0 0 -0.540861,1.035995 0.92676944,1.140427 0 0 0 0.853925,1.136835 0.99791019,1.1305135 0 0 0 -0.06061,0.385763 0.99791019,1.1305135 0 0 0 0.997704,1.130175 0.99791019,1.1305135 0 0 0 0.2115,-0.02568 1.1300759,1.1281599 0 0 0 1.12895,1.091171 1.1300759,1.1281599 0 0 0 0.50408,-0.118916 1.4872995,0.8672771 0 0 0 1.45163,0.680198 1.4872995,0.8672771 0 0 0 1.00481,-0.227842 1.2814401,0.95279174 0 0 0 1.26229,0.79293 1.2814401,0.95279174 0 0 0 0.99603,-0.353418 1.7774367,0.88488996 0 0 0 1.25435,0.257809 1.7774367,0.88488996 0 0 0 1.43115,-0.361028 1.5538874,1.2361505 0 0 0 1.19917,0.450929 1.5538874,1.2361505 0 0 0 1.55027,-1.154434 1.4595173,1.1778032 0 0 0 0.76406,0.175044 1.4595173,1.1778032 0 0 0 1.45957,-1.177743 1.4595173,1.1778032 0 0 0 -0.007,-0.112732 1.3857861,1.1579498 0 0 0 1.3254,-1.156337 1.3857861,1.1579498 0 0 0 -0.0514,-0.311559 1.102522,1.5823507 0 0 0 0.77159,-1.508328 1.102522,1.5823507 0 0 0 -0.89155,-1.55304 2.1963175,1.2495661 0 0 0 -1.77388,-1.1121 8.2768127,4.3248323 0 0 0 -0.1208,-0.06897 1.5889062,1.4796282 0 0 0 -1.4859,-0.956558 1.5889062,1.4796282 0 0 0 -0.069,0.0024 1.720744,0.92031567 0 0 0 -1.57326,-0.547963 1.720744,0.92031567 0 0 0 -0.98517,0.166006 1.815024,0.99774896 0 0 0 -1.51642,-0.449502 z" />
    <g
       inkscape:label=""
       transform="translate(83.421102,28.76594)"
       id="g17351">
      <g
         fill="#000000"
         fill-opacity="1"
         id="g17343"
         transform="matrix(0.705556,0,0,0.705556,-212.752,-63.1555)">
        <g
           id="g17341"
           transform="translate(301.13199,93.917999)">
          <path
             d="M 3.71875,-3.765625 C 3.53125,-4.140625 3.25,-4.40625 2.796875,-4.40625 c -1.15625,0 -2.390625,1.46875 -2.390625,2.921875 0,0.9375 0.546875,1.59375 1.3125,1.59375 0.203125,0 0.703125,-0.046875 1.296875,-0.75 0.078125,0.421875 0.4375,0.75 0.90625,0.75 0.359375,0 0.578125,-0.234375 0.75,-0.546875 0.15625,-0.359375 0.296875,-0.96875 0.296875,-0.984375 0,-0.109375 -0.09375,-0.109375 -0.125,-0.109375 -0.09375,0 -0.109375,0.046875 -0.140625,0.1875 -0.171875,0.640625 -0.34375,1.234375 -0.75,1.234375 -0.28125,0 -0.296875,-0.265625 -0.296875,-0.453125 0,-0.21875 0.015625,-0.3125 0.125,-0.75 C 3.890625,-1.71875 3.90625,-1.828125 4,-2.203125 L 4.359375,-3.59375 c 0.0625,-0.28125 0.0625,-0.296875 0.0625,-0.34375 0,-0.171875 -0.109375,-0.265625 -0.28125,-0.265625 -0.25,0 -0.390625,0.21875 -0.421875,0.4375 z M 3.078125,-1.1875 C 3.015625,-1 3.015625,-0.984375 2.875,-0.8125 2.4375,-0.265625 2.03125,-0.109375 1.75,-0.109375 c -0.5,0 -0.640625,-0.546875 -0.640625,-0.9375 0,-0.5 0.3125,-1.71875 0.546875,-2.1875 0.3125,-0.578125 0.75,-0.953125 1.15625,-0.953125 0.640625,0 0.78125,0.8125 0.78125,0.875 0,0.0625 -0.015625,0.125 -0.03125,0.171875 z m 0,0"
             id="path17339" />
        </g>
      </g>
      <g
         fill="#000000"
         fill-opacity="1"
         id="g17349"
         transform="matrix(0.705556,0,0,0.705556,-212.752,-63.1555)">
        <g
           id="g17347"
           transform="translate(306.39801,95.412003)">
          <path
             d="m 2.328125,-4.4375 c 0,-0.1875 0,-0.1875 -0.203125,-0.1875 -0.453125,0.4375 -1.078125,0.4375 -1.359375,0.4375 v 0.25 c 0.15625,0 0.625,0 1,-0.1875 v 3.546875 c 0,0.234375 0,0.328125 -0.6875,0.328125 H 0.8125 V 0 c 0.125,0 0.984375,-0.03125 1.234375,-0.03125 0.21875,0 1.09375,0.03125 1.25,0.03125 V -0.25 H 3.03125 c -0.703125,0 -0.703125,-0.09375 -0.703125,-0.328125 z m 0,0"
             id="path17345" />
        </g>
      </g>
    </g>
    <path
       style="fill:#550000;fill-opacity:1;stroke:#0082ab;stroke-width:0.704973;stroke-dasharray:none;stroke-opacity:0.329412;marker-end:url(#Arrow2-1-8)"
       d="m 120.11065,55.818105 18.00833,-0.08225"
       id="path186-3-3" />
    <path
       style="fill:#550000;fill-opacity:1;stroke:#0082ab;stroke-width:0.704973;stroke-dasharray:none;stroke-opacity:0.329412;marker-end:url(#Arrow2-0-7-6)"
       d="m 128.7888,34.748153 12.79197,12.675654"
       id="path186-1-5-1" />
    <path
       id="path15133-2-4"
       style="font-variation-settings:normal;fill:none;fill-opacity:1;stroke:#d58900;stroke-width:0.431422;stroke-linecap:butt;stroke-linejoin:miter;stroke-miterlimit:4;stroke-dasharray:none;stroke-dashoffset:0;stroke-opacity:0.99487191;stop-color:#000000"
       d="m 123.87135,25.961691 a 1.815024,0.99774896 0 0 0 -1.27022,0.285398 2.1718715,0.71306749 0 0 0 -1.16741,-0.112256 2.1718715,0.71306749 0 0 0 -2.14839,0.6098 1.4645488,1.0433648 0 0 0 -0.80294,-0.170763 1.4645488,1.0433648 0 0 0 -1.42822,0.815762 1.3477576,0.98404675 0 0 0 -0.31473,-0.02711 1.3477576,0.98404675 0 0 0 -1.34756,0.983672 1.3477576,0.98404675 0 0 0 0.005,0.08372 0.96305462,0.96283078 0 0 0 -0.74817,0.938483 0.96305462,0.96283078 0 0 0 0.13124,0.484225 0.92676944,1.140427 0 0 0 -0.54086,1.035995 0.92676944,1.140427 0 0 0 0.85393,1.136835 0.99791019,1.1305135 0 0 0 -0.0606,0.385763 0.99791019,1.1305135 0 0 0 0.9977,1.130175 0.99791019,1.1305135 0 0 0 0.2115,-0.02568 1.1300759,1.1281599 0 0 0 1.12895,1.091171 1.1300759,1.1281599 0 0 0 0.50408,-0.118916 1.4872995,0.8672771 0 0 0 1.45163,0.680198 1.4872995,0.8672771 0 0 0 1.00481,-0.227842 1.2814401,0.95279174 0 0 0 1.26229,0.79293 1.2814401,0.95279174 0 0 0 0.99603,-0.353418 1.7774367,0.88488996 0 0 0 1.25435,0.257809 1.7774367,0.88488996 0 0 0 1.43115,-0.361028 1.5538874,1.2361505 0 0 0 1.19917,0.450929 1.5538874,1.2361505 0 0 0 1.55027,-1.154434 1.4595173,1.1778032 0 0 0 0.76406,0.175044 1.4595173,1.1778032 0 0 0 1.45957,-1.177743 1.4595173,1.1778032 0 0 0 -0.007,-0.112732 1.3857861,1.1579498 0 0 0 1.3254,-1.156337 1.3857861,1.1579498 0 0 0 -0.0514,-0.311559 1.102522,1.5823507 0 0 0 0.77159,-1.508328 1.102522,1.5823507 0 0 0 -0.89155,-1.55304 2.1963175,1.2495661 0 0 0 -1.77388,-1.1121 8.2768127,4.3248323 0 0 0 -0.1208,-0.06897 1.5889062,1.4796282 0 0 0 -1.4859,-0.956558 1.5889062,1.4796282 0 0 0 -0.069,0.0024 1.720744,0.92031567 0 0 0 -1.57326,-0.547963 1.720744,0.92031567 0 0 0 -0.98517,0.166006 1.815024,0.99774896 0 0 0 -1.51642,-0.449502 z" />
    <circle
       style="font-variation-settings:normal;opacity:1;fill:#5e5e5e;fill-opacity:1;stroke:none;stroke-width:0.414999;stroke-linecap:butt;stroke-linejoin:miter;stroke-miterlimit:4;stroke-dasharray:1.245, 1.245;stroke-dashoffset:0;stroke-opacity:0.994872;stop-color:#000000;stop-opacity:1"
       id="path18159"
       cx="108.21127"
       cy="55.251896"
       r="1.4077286" />
    <circle
       style="font-variation-settings:normal;fill:#5e5e5e;fill-opacity:1;stroke:none;stroke-width:0.414999;stroke-linecap:butt;stroke-linejoin:miter;stroke-miterlimit:4;stroke-dasharray:1.245, 1.245;stroke-dashoffset:0;stroke-opacity:0.994872;stop-color:#000000"
       id="path18159-7"
       cx="112.23454"
       cy="55.251896"
       r="1.4077286" />
    <circle
       style="font-variation-settings:normal;fill:#5e5e5e;fill-opacity:1;stroke:none;stroke-width:0.414999;stroke-linecap:butt;stroke-linejoin:miter;stroke-miterlimit:4;stroke-dasharray:1.245, 1.245;stroke-dashoffset:0;stroke-opacity:0.994872;stop-color:#000000"
       id="path18159-8"
       cx="116.25781"
       cy="55.251896"
       r="1.4077286" />
    <g
       inkscape:label=""
       transform="translate(116.14988,28.76594)"
       id="g20655">
      <g
         fill="#000000"
         fill-opacity="1"
         id="g24"
         transform="matrix(0.705556,0,0,0.705556,-208.517,-63.1555)">
        <g
           id="use22"
           transform="translate(295.13,93.917999)">
          <path
             d="M 3.71875,-3.765625 C 3.53125,-4.140625 3.25,-4.40625 2.796875,-4.40625 c -1.15625,0 -2.390625,1.46875 -2.390625,2.921875 0,0.9375 0.546875,1.59375 1.3125,1.59375 0.203125,0 0.703125,-0.046875 1.296875,-0.75 0.078125,0.421875 0.4375,0.75 0.90625,0.75 0.359375,0 0.578125,-0.234375 0.75,-0.546875 0.15625,-0.359375 0.296875,-0.96875 0.296875,-0.984375 0,-0.109375 -0.09375,-0.109375 -0.125,-0.109375 -0.09375,0 -0.109375,0.046875 -0.140625,0.1875 -0.171875,0.640625 -0.34375,1.234375 -0.75,1.234375 -0.28125,0 -0.296875,-0.265625 -0.296875,-0.453125 0,-0.21875 0.015625,-0.3125 0.125,-0.75 C 3.890625,-1.71875 3.90625,-1.828125 4,-2.203125 L 4.359375,-3.59375 c 0.0625,-0.28125 0.0625,-0.296875 0.0625,-0.34375 0,-0.171875 -0.109375,-0.265625 -0.28125,-0.265625 -0.25,0 -0.390625,0.21875 -0.421875,0.4375 z M 3.078125,-1.1875 C 3.015625,-1 3.015625,-0.984375 2.875,-0.8125 2.4375,-0.265625 2.03125,-0.109375 1.75,-0.109375 c -0.5,0 -0.640625,-0.546875 -0.640625,-0.9375 0,-0.5 0.3125,-1.71875 0.546875,-2.1875 0.3125,-0.578125 0.75,-0.953125 1.15625,-0.953125 0.640625,0 0.78125,0.8125 0.78125,0.875 0,0.0625 -0.015625,0.125 -0.03125,0.171875 z m 0,0"
             id="path42" />
        </g>
      </g>
      <g
         fill="#000000"
         fill-opacity="1"
         id="g28"
         transform="matrix(0.705556,0,0,0.705556,-208.517,-63.1555)">
        <g
           id="g20646"
           transform="translate(300.396,95.412003)">
          <path
             d="m 3.390625,-4.21875 c 0.046875,-0.203125 0.0625,-0.21875 0.21875,-0.234375 0.03125,0 0.265625,0 0.40625,0 0.4375,0 0.609375,0 0.78125,0.046875 0.3125,0.09375 0.328125,0.296875 0.328125,0.546875 0,0.109375 0,0.203125 -0.046875,0.5625 L 5.0625,-3.21875 c 0,0.078125 0.046875,0.109375 0.125,0.109375 0.109375,0 0.109375,-0.0625 0.125,-0.171875 L 5.5,-4.609375 c 0,-0.09375 -0.078125,-0.09375 -0.203125,-0.09375 h -4.28125 c -0.171875,0 -0.1875,0 -0.234375,0.140625 l -0.453125,1.234375 c 0,0.03125 -0.03125,0.09375 -0.03125,0.125 0,0.03125 0.015625,0.09375 0.125,0.09375 0.09375,0 0.09375,-0.03125 0.140625,-0.171875 0.40625,-1.109375 0.640625,-1.171875 1.703125,-1.171875 h 0.28125 c 0.21875,0 0.21875,0 0.21875,0.0625 0,0 0,0.046875 -0.03125,0.140625 L 1.8125,-0.578125 C 1.75,-0.328125 1.734375,-0.25 1,-0.25 c -0.25,0 -0.3125,0 -0.3125,0.15625 C 0.6875,-0.078125 0.703125,0 0.8125,0 1,0 1.21875,-0.015625 1.40625,-0.015625 1.609375,-0.015625 1.8125,-0.03125 2,-0.03125 c 0.203125,0 0.4375,0 0.640625,0.015625 C 2.828125,-0.015625 3.03125,0 3.21875,0 3.28125,0 3.375,0 3.375,-0.15625 3.375,-0.25 3.3125,-0.25 3.09375,-0.25 c -0.125,0 -0.265625,-0.015625 -0.40625,-0.015625 -0.234375,-0.015625 -0.25,-0.046875 -0.25,-0.125 0,-0.0625 0,-0.0625 0.03125,-0.171875 z m 0,0"
             id="path46" />
        </g>
      </g>
      <g
         fill="#000000"
         fill-opacity="1"
         id="g32"
         transform="matrix(0.705556,0,0,0.705556,-208.517,-63.1555)">
        <g
           id="use30"
           transform="translate(306.17401,95.412003)">
          <path
             d="m 5.1875,-1.578125 c 0.109375,0 0.28125,0 0.28125,-0.15625 0,-0.1875 -0.171875,-0.1875 -0.28125,-0.1875 H 1.03125 c -0.109375,0 -0.28125,0 -0.28125,0.171875 0,0.171875 0.15625,0.171875 0.28125,0.171875 z m 0,0"
             id="path50" />
        </g>
      </g>
      <g
         fill="#000000"
         fill-opacity="1"
         id="g36"
         transform="matrix(0.705556,0,0,0.705556,-208.517,-63.1555)">
        <g
           id="use34"
           transform="translate(312.401,95.412003)">
          <path
             d="m 2.328125,-4.4375 c 0,-0.1875 0,-0.1875 -0.203125,-0.1875 -0.453125,0.4375 -1.078125,0.4375 -1.359375,0.4375 v 0.25 c 0.15625,0 0.625,0 1,-0.1875 v 3.546875 c 0,0.234375 0,0.328125 -0.6875,0.328125 H 0.8125 V 0 c 0.125,0 0.984375,-0.03125 1.234375,-0.03125 0.21875,0 1.09375,0.03125 1.25,0.03125 V -0.25 H 3.03125 c -0.703125,0 -0.703125,-0.09375 -0.703125,-0.328125 z m 0,0"
             id="path54" />
        </g>
      </g>
    </g>
    <g
       inkscape:label=""
       transform="translate(146.47506,53.658833)"
       id="g22621">
      <g
         fill="#000000"
         fill-opacity="1"
         id="g22613"
         transform="matrix(0.705556,0,0,0.705556,-212.349,-63.1555)">
        <g
           id="g22611"
           transform="translate(300.54501,93.917999)">
          <path
             d="m 1.328125,-0.828125 c 0.53125,-0.578125 0.828125,-0.828125 1.1875,-1.140625 0,0 0.609375,-0.53125 0.96875,-0.890625 C 4.4375,-3.78125 4.65625,-4.265625 4.65625,-4.3125 c 0,-0.09375 -0.09375,-0.09375 -0.109375,-0.09375 -0.078125,0 -0.09375,0.015625 -0.15625,0.109375 -0.296875,0.484375 -0.5,0.640625 -0.734375,0.640625 -0.25,0 -0.359375,-0.15625 -0.515625,-0.328125 -0.1875,-0.21875 -0.359375,-0.421875 -0.6875,-0.421875 -0.75,0 -1.203125,0.921875 -1.203125,1.140625 0,0.046875 0.03125,0.109375 0.109375,0.109375 0.09375,0 0.109375,-0.046875 0.140625,-0.109375 0.1875,-0.46875 0.765625,-0.46875 0.84375,-0.46875 0.203125,0 0.390625,0.0625 0.625,0.140625 0.40625,0.15625 0.515625,0.15625 0.765625,0.15625 -0.359375,0.421875 -1.1875,1.140625 -1.375,1.296875 l -0.90625,0.84375 C 0.78125,-0.625 0.421875,-0.0625 0.421875,0.015625 c 0,0.09375 0.109375,0.09375 0.125,0.09375 0.078125,0 0.09375,-0.015625 0.15625,-0.125 0.234375,-0.359375 0.53125,-0.625 0.859375,-0.625 0.21875,0 0.328125,0.09375 0.578125,0.375 0.15625,0.21875 0.34375,0.375 0.625,0.375 1,0 1.578125,-1.265625 1.578125,-1.53125 0,-0.046875 -0.046875,-0.109375 -0.125,-0.109375 -0.09375,0 -0.109375,0.0625 -0.140625,0.140625 C 3.84375,-0.75 3.203125,-0.5625 2.875,-0.5625 c -0.1875,0 -0.375,-0.0625 -0.578125,-0.125 -0.34375,-0.125 -0.5,-0.171875 -0.703125,-0.171875 -0.015625,0 -0.171875,0 -0.265625,0.03125 z m 0,0"
             id="path22609" />
        </g>
      </g>
      <g
         fill="#000000"
         fill-opacity="1"
         id="g22619"
         transform="matrix(0.705556,0,0,0.705556,-212.349,-63.1555)">
        <g
           id="g22617"
           transform="translate(305.17801,95.412003)">
          <path
             d="m 3.390625,-4.21875 c 0.046875,-0.203125 0.0625,-0.21875 0.21875,-0.234375 0.03125,0 0.265625,0 0.40625,0 0.4375,0 0.609375,0 0.78125,0.046875 0.3125,0.09375 0.328125,0.296875 0.328125,0.546875 0,0.109375 0,0.203125 -0.046875,0.5625 L 5.0625,-3.21875 c 0,0.078125 0.046875,0.109375 0.125,0.109375 0.109375,0 0.109375,-0.0625 0.125,-0.171875 L 5.5,-4.609375 c 0,-0.09375 -0.078125,-0.09375 -0.203125,-0.09375 h -4.28125 c -0.171875,0 -0.1875,0 -0.234375,0.140625 l -0.453125,1.234375 c 0,0.03125 -0.03125,0.09375 -0.03125,0.125 0,0.03125 0.015625,0.09375 0.125,0.09375 0.09375,0 0.09375,-0.03125 0.140625,-0.171875 0.40625,-1.109375 0.640625,-1.171875 1.703125,-1.171875 h 0.28125 c 0.21875,0 0.21875,0 0.21875,0.0625 0,0 0,0.046875 -0.03125,0.140625 L 1.8125,-0.578125 C 1.75,-0.328125 1.734375,-0.25 1,-0.25 c -0.25,0 -0.3125,0 -0.3125,0.15625 C 0.6875,-0.078125 0.703125,0 0.8125,0 1,0 1.21875,-0.015625 1.40625,-0.015625 1.609375,-0.015625 1.8125,-0.03125 2,-0.03125 c 0.203125,0 0.4375,0 0.640625,0.015625 C 2.828125,-0.015625 3.03125,0 3.21875,0 3.28125,0 3.375,0 3.375,-0.15625 3.375,-0.25 3.3125,-0.25 3.09375,-0.25 c -0.125,0 -0.265625,-0.015625 -0.40625,-0.015625 -0.234375,-0.015625 -0.25,-0.046875 -0.25,-0.125 0,-0.0625 0,-0.0625 0.03125,-0.171875 z m 0,0"
             id="path22615" />
        </g>
      </g>
    </g>
    <g
       inkscape:label=""
       transform="translate(126.86931,82.732123)"
       id="g23603">
      <g
         fill="#000000"
         fill-opacity="1"
         id="g26"
         transform="matrix(0.705556,0,0,0.705556,-210.327,-58.931)">
        <g
           id="g23583"
           transform="translate(297.80499,93.917999)">
          <path
             d="M 3.328125,-3.015625 C 3.390625,-3.265625 3.625,-4.1875 4.3125,-4.1875 c 0.046875,0 0.296875,0 0.5,0.125 C 4.53125,-4 4.34375,-3.765625 4.34375,-3.515625 c 0,0.15625 0.109375,0.34375 0.375,0.34375 0.21875,0 0.53125,-0.171875 0.53125,-0.578125 0,-0.515625 -0.578125,-0.65625 -0.921875,-0.65625 -0.578125,0 -0.921875,0.53125 -1.046875,0.75 -0.25,-0.65625 -0.78125,-0.75 -1.078125,-0.75 -1.03125,0 -1.609375,1.28125 -1.609375,1.53125 0,0.109375 0.109375,0.109375 0.125,0.109375 0.078125,0 0.109375,-0.03125 0.125,-0.109375 0.34375,-1.0625 1,-1.3125 1.34375,-1.3125 0.1875,0 0.53125,0.09375 0.53125,0.671875 0,0.3125 -0.171875,0.96875 -0.53125,2.375 -0.15625,0.609375 -0.515625,1.03125 -0.953125,1.03125 -0.0625,0 -0.28125,0 -0.5,-0.125 0.25,-0.0625 0.46875,-0.265625 0.46875,-0.546875 0,-0.265625 -0.21875,-0.34375 -0.359375,-0.34375 -0.3125,0 -0.546875,0.25 -0.546875,0.578125 0,0.453125 0.484375,0.65625 0.921875,0.65625 0.671875,0 1.03125,-0.703125 1.046875,-0.75 0.125,0.359375 0.484375,0.75 1.078125,0.75 1.03125,0 1.59375,-1.28125 1.59375,-1.53125 0,-0.109375 -0.078125,-0.109375 -0.109375,-0.109375 -0.09375,0 -0.109375,0.046875 -0.140625,0.109375 -0.328125,1.078125 -1,1.3125 -1.3125,1.3125 -0.390625,0 -0.546875,-0.3125 -0.546875,-0.65625 0,-0.21875 0.046875,-0.4375 0.15625,-0.875 z m 0,0"
             id="path23581" />
        </g>
      </g>
      <g
         fill="#000000"
         fill-opacity="1"
         id="g23598"
         transform="matrix(0.705556,0,0,0.705556,-210.327,-58.931)">
        <g
           id="g23588"
           transform="translate(303.49899,88.742996)">
          <path
             d="M 2.46875,-5.21875 C 1.15625,-4.296875 0.796875,-2.8125 0.796875,-1.75 c 0,0.984375 0.296875,2.515625 1.671875,3.484375 0.0625,0 0.140625,0 0.140625,-0.078125 0,-0.046875 -0.015625,-0.0625 -0.0625,-0.109375 C 1.609375,0.703125 1.28125,-0.46875 1.28125,-1.734375 1.28125,-3.625 2,-4.546875 2.5625,-5.0625 2.59375,-5.09375 2.609375,-5.109375 2.609375,-5.140625 2.609375,-5.21875 2.53125,-5.21875 2.46875,-5.21875 Z m 0,0"
             id="path23586" />
        </g>
        <g
           id="g23592"
           transform="translate(306.61209,88.742996)">
          <path
             d="M 3.59375,-2.21875 C 3.59375,-2.984375 3.5,-3.546875 3.1875,-4.03125 2.96875,-4.34375 2.53125,-4.625 1.984375,-4.625 c -1.625,0 -1.625,1.90625 -1.625,2.40625 0,0.5 0,2.359375 1.625,2.359375 1.609375,0 1.609375,-1.859375 1.609375,-2.359375 z M 1.984375,-0.0625 c -0.328125,0 -0.75,-0.1875 -0.890625,-0.75 C 1,-1.21875 1,-1.796875 1,-2.3125 1,-2.828125 1,-3.359375 1.09375,-3.734375 1.25,-4.28125 1.6875,-4.4375 1.984375,-4.4375 c 0.375,0 0.734375,0.234375 0.859375,0.640625 0.109375,0.375 0.125,0.875 0.125,1.484375 0,0.515625 0,1.03125 -0.09375,1.46875 -0.140625,0.640625 -0.609375,0.78125 -0.890625,0.78125 z m 0,0"
             id="path23590" />
        </g>
        <g
           id="g23596"
           transform="translate(310.58368,88.742996)">
          <path
             d="m 0.625,-5.21875 c -0.046875,0 -0.125,0 -0.125,0.078125 0,0.03125 0.015625,0.046875 0.0625,0.109375 0.59375,0.546875 1.265625,1.484375 1.265625,3.28125 0,1.453125 -0.453125,2.5625 -1.203125,3.234375 -0.125,0.125 -0.125,0.125 -0.125,0.171875 0,0.03125 0.015625,0.078125 0.078125,0.078125 0.09375,0 0.75,-0.453125 1.21875,-1.328125 0.296875,-0.578125 0.5,-1.328125 0.5,-2.140625 C 2.296875,-2.71875 2,-4.25 0.625,-5.21875 Z m 0,0"
             id="path23594" />
        </g>
      </g>
      <g
         fill="#000000"
         fill-opacity="1"
         id="g38"
         transform="matrix(0.705556,0,0,0.705556,-210.327,-58.931)">
        <g
           id="use36"
           transform="translate(303.49899,96.846001)">
          <path
             d="m 3.390625,-4.21875 c 0.046875,-0.203125 0.0625,-0.21875 0.21875,-0.234375 0.03125,0 0.265625,0 0.40625,0 0.4375,0 0.609375,0 0.78125,0.046875 0.3125,0.09375 0.328125,0.296875 0.328125,0.546875 0,0.109375 0,0.203125 -0.046875,0.5625 L 5.0625,-3.21875 c 0,0.078125 0.046875,0.109375 0.125,0.109375 0.109375,0 0.109375,-0.0625 0.125,-0.171875 L 5.5,-4.609375 c 0,-0.09375 -0.078125,-0.09375 -0.203125,-0.09375 h -4.28125 c -0.171875,0 -0.1875,0 -0.234375,0.140625 l -0.453125,1.234375 c 0,0.03125 -0.03125,0.09375 -0.03125,0.125 0,0.03125 0.015625,0.09375 0.125,0.09375 0.09375,0 0.09375,-0.03125 0.140625,-0.171875 0.40625,-1.109375 0.640625,-1.171875 1.703125,-1.171875 h 0.28125 c 0.21875,0 0.21875,0 0.21875,0.0625 0,0 0,0.046875 -0.03125,0.140625 L 1.8125,-0.578125 C 1.75,-0.328125 1.734375,-0.25 1,-0.25 c -0.25,0 -0.3125,0 -0.3125,0.15625 C 0.6875,-0.078125 0.703125,0 0.8125,0 1,0 1.21875,-0.015625 1.40625,-0.015625 1.609375,-0.015625 1.8125,-0.03125 2,-0.03125 c 0.203125,0 0.4375,0 0.640625,0.015625 C 2.828125,-0.015625 3.03125,0 3.21875,0 3.28125,0 3.375,0 3.375,-0.15625 3.375,-0.25 3.3125,-0.25 3.09375,-0.25 c -0.125,0 -0.265625,-0.015625 -0.40625,-0.015625 -0.234375,-0.015625 -0.25,-0.046875 -0.25,-0.125 0,-0.0625 0,-0.0625 0.03125,-0.171875 z m 0,0"
             id="path60" />
        </g>
      </g>
    </g>
    <g
       inkscape:label=""
       transform="translate(144.76451,87.738593)"
       id="g25007">
      <g
         fill="#000000"
         fill-opacity="1"
         id="g24985"
         transform="matrix(0.705556,0,0,0.705556,-210.327,-58.931)">
        <g
           id="g24983"
           transform="translate(297.80499,93.917999)">
          <path
             d="M 3.328125,-3.015625 C 3.390625,-3.265625 3.625,-4.1875 4.3125,-4.1875 c 0.046875,0 0.296875,0 0.5,0.125 C 4.53125,-4 4.34375,-3.765625 4.34375,-3.515625 c 0,0.15625 0.109375,0.34375 0.375,0.34375 0.21875,0 0.53125,-0.171875 0.53125,-0.578125 0,-0.515625 -0.578125,-0.65625 -0.921875,-0.65625 -0.578125,0 -0.921875,0.53125 -1.046875,0.75 -0.25,-0.65625 -0.78125,-0.75 -1.078125,-0.75 -1.03125,0 -1.609375,1.28125 -1.609375,1.53125 0,0.109375 0.109375,0.109375 0.125,0.109375 0.078125,0 0.109375,-0.03125 0.125,-0.109375 0.34375,-1.0625 1,-1.3125 1.34375,-1.3125 0.1875,0 0.53125,0.09375 0.53125,0.671875 0,0.3125 -0.171875,0.96875 -0.53125,2.375 -0.15625,0.609375 -0.515625,1.03125 -0.953125,1.03125 -0.0625,0 -0.28125,0 -0.5,-0.125 0.25,-0.0625 0.46875,-0.265625 0.46875,-0.546875 0,-0.265625 -0.21875,-0.34375 -0.359375,-0.34375 -0.3125,0 -0.546875,0.25 -0.546875,0.578125 0,0.453125 0.484375,0.65625 0.921875,0.65625 0.671875,0 1.03125,-0.703125 1.046875,-0.75 0.125,0.359375 0.484375,0.75 1.078125,0.75 1.03125,0 1.59375,-1.28125 1.59375,-1.53125 0,-0.109375 -0.078125,-0.109375 -0.109375,-0.109375 -0.09375,0 -0.109375,0.046875 -0.140625,0.109375 -0.328125,1.078125 -1,1.3125 -1.3125,1.3125 -0.390625,0 -0.546875,-0.3125 -0.546875,-0.65625 0,-0.21875 0.046875,-0.4375 0.15625,-0.875 z m 0,0"
             id="path24981" />
        </g>
      </g>
      <g
         fill="#000000"
         fill-opacity="1"
         id="g24999"
         transform="matrix(0.705556,0,0,0.705556,-210.327,-58.931)">
        <g
           id="g24989"
           transform="translate(303.49899,88.742996)">
          <path
             d="M 2.46875,-5.21875 C 1.15625,-4.296875 0.796875,-2.8125 0.796875,-1.75 c 0,0.984375 0.296875,2.515625 1.671875,3.484375 0.0625,0 0.140625,0 0.140625,-0.078125 0,-0.046875 -0.015625,-0.0625 -0.0625,-0.109375 C 1.609375,0.703125 1.28125,-0.46875 1.28125,-1.734375 1.28125,-3.625 2,-4.546875 2.5625,-5.0625 2.59375,-5.09375 2.609375,-5.109375 2.609375,-5.140625 2.609375,-5.21875 2.53125,-5.21875 2.46875,-5.21875 Z m 0,0"
             id="path24987" />
        </g>
        <g
           id="g24993"
           transform="translate(306.61209,88.742996)">
          <path
             d="m 2.328125,-4.4375 c 0,-0.1875 0,-0.1875 -0.203125,-0.1875 -0.453125,0.4375 -1.078125,0.4375 -1.359375,0.4375 v 0.25 c 0.15625,0 0.625,0 1,-0.1875 v 3.546875 c 0,0.234375 0,0.328125 -0.6875,0.328125 H 0.8125 V 0 c 0.125,0 0.984375,-0.03125 1.234375,-0.03125 0.21875,0 1.09375,0.03125 1.25,0.03125 V -0.25 H 3.03125 c -0.703125,0 -0.703125,-0.09375 -0.703125,-0.328125 z m 0,0"
             id="path24991" />
        </g>
        <g
           id="g24997"
           transform="translate(310.58368,88.742996)">
          <path
             d="m 0.625,-5.21875 c -0.046875,0 -0.125,0 -0.125,0.078125 0,0.03125 0.015625,0.046875 0.0625,0.109375 0.59375,0.546875 1.265625,1.484375 1.265625,3.28125 0,1.453125 -0.453125,2.5625 -1.203125,3.234375 -0.125,0.125 -0.125,0.125 -0.125,0.171875 0,0.03125 0.015625,0.078125 0.078125,0.078125 0.09375,0 0.75,-0.453125 1.21875,-1.328125 0.296875,-0.578125 0.5,-1.328125 0.5,-2.140625 C 2.296875,-2.71875 2,-4.25 0.625,-5.21875 Z m 0,0"
             id="path24995" />
        </g>
      </g>
      <g
         fill="#000000"
         fill-opacity="1"
         id="g25005"
         transform="matrix(0.705556,0,0,0.705556,-210.327,-58.931)">
        <g
           id="g25003"
           transform="translate(303.49899,96.846001)">
          <path
             d="m 3.390625,-4.21875 c 0.046875,-0.203125 0.0625,-0.21875 0.21875,-0.234375 0.03125,0 0.265625,0 0.40625,0 0.4375,0 0.609375,0 0.78125,0.046875 0.3125,0.09375 0.328125,0.296875 0.328125,0.546875 0,0.109375 0,0.203125 -0.046875,0.5625 L 5.0625,-3.21875 c 0,0.078125 0.046875,0.109375 0.125,0.109375 0.109375,0 0.109375,-0.0625 0.125,-0.171875 L 5.5,-4.609375 c 0,-0.09375 -0.078125,-0.09375 -0.203125,-0.09375 h -4.28125 c -0.171875,0 -0.1875,0 -0.234375,0.140625 l -0.453125,1.234375 c 0,0.03125 -0.03125,0.09375 -0.03125,0.125 0,0.03125 0.015625,0.09375 0.125,0.09375 0.09375,0 0.09375,-0.03125 0.140625,-0.171875 0.40625,-1.109375 0.640625,-1.171875 1.703125,-1.171875 h 0.28125 c 0.21875,0 0.21875,0 0.21875,0.0625 0,0 0,0.046875 -0.03125,0.140625 L 1.8125,-0.578125 C 1.75,-0.328125 1.734375,-0.25 1,-0.25 c -0.25,0 -0.3125,0 -0.3125,0.15625 C 0.6875,-0.078125 0.703125,0 0.8125,0 1,0 1.21875,-0.015625 1.40625,-0.015625 1.609375,-0.015625 1.8125,-0.03125 2,-0.03125 c 0.203125,0 0.4375,0 0.640625,0.015625 C 2.828125,-0.015625 3.03125,0 3.21875,0 3.28125,0 3.375,0 3.375,-0.15625 3.375,-0.25 3.3125,-0.25 3.09375,-0.25 c -0.125,0 -0.265625,-0.015625 -0.40625,-0.015625 -0.234375,-0.015625 -0.25,-0.046875 -0.25,-0.125 0,-0.0625 0,-0.0625 0.03125,-0.171875 z m 0,0"
             id="path25001" />
        </g>
      </g>
    </g>
    <g
       inkscape:label=""
       transform="translate(164.45276,85.350247)"
       id="g26425">
      <g
         fill="#000000"
         fill-opacity="1"
         id="g26417"
         transform="matrix(0.705556,0,0,0.705556,-212.31,-63.1555)">
        <g
           id="g26415"
           transform="translate(300.61499,93.917999)">
          <path
             d="m 0.875,-0.59375 c -0.03125,0.15625 -0.09375,0.390625 -0.09375,0.4375 0,0.171875 0.140625,0.265625 0.296875,0.265625 0.125,0 0.296875,-0.078125 0.375,-0.28125 C 1.46875,-0.203125 1.796875,-1.5625 1.84375,-1.75 c 0.078125,-0.328125 0.265625,-1.015625 0.3125,-1.296875 0.046875,-0.125 0.328125,-0.59375 0.5625,-0.8125 0.078125,-0.0625 0.375,-0.328125 0.796875,-0.328125 0.265625,0 0.40625,0.125 0.421875,0.125 -0.296875,0.046875 -0.515625,0.28125 -0.515625,0.546875 0,0.15625 0.109375,0.34375 0.375,0.34375 0.265625,0 0.546875,-0.234375 0.546875,-0.59375 0,-0.34375 -0.3125,-0.640625 -0.828125,-0.640625 C 2.875,-4.40625 2.4375,-3.921875 2.25,-3.640625 2.15625,-4.09375 1.796875,-4.40625 1.328125,-4.40625 0.875,-4.40625 0.6875,-4.015625 0.59375,-3.84375 0.421875,-3.5 0.296875,-2.90625 0.296875,-2.875 c 0,0.109375 0.09375,0.109375 0.109375,0.109375 0.109375,0 0.109375,-0.015625 0.171875,-0.234375 0.171875,-0.703125 0.375,-1.1875 0.734375,-1.1875 0.15625,0 0.296875,0.078125 0.296875,0.453125 0,0.21875 -0.03125,0.328125 -0.15625,0.84375 z m 0,0"
             id="path26413" />
        </g>
      </g>
      <g
         fill="#000000"
         fill-opacity="1"
         id="g26423"
         transform="matrix(0.705556,0,0,0.705556,-212.31,-63.1555)">
        <g
           id="g26421"
           transform="translate(305.10901,95.412003)">
          <path
             d="m 3.390625,-4.21875 c 0.046875,-0.203125 0.0625,-0.21875 0.21875,-0.234375 0.03125,0 0.265625,0 0.40625,0 0.4375,0 0.609375,0 0.78125,0.046875 0.3125,0.09375 0.328125,0.296875 0.328125,0.546875 0,0.109375 0,0.203125 -0.046875,0.5625 L 5.0625,-3.21875 c 0,0.078125 0.046875,0.109375 0.125,0.109375 0.109375,0 0.109375,-0.0625 0.125,-0.171875 L 5.5,-4.609375 c 0,-0.09375 -0.078125,-0.09375 -0.203125,-0.09375 h -4.28125 c -0.171875,0 -0.1875,0 -0.234375,0.140625 l -0.453125,1.234375 c 0,0.03125 -0.03125,0.09375 -0.03125,0.125 0,0.03125 0.015625,0.09375 0.125,0.09375 0.09375,0 0.09375,-0.03125 0.140625,-0.171875 0.40625,-1.109375 0.640625,-1.171875 1.703125,-1.171875 h 0.28125 c 0.21875,0 0.21875,0 0.21875,0.0625 0,0 0,0.046875 -0.03125,0.140625 L 1.8125,-0.578125 C 1.75,-0.328125 1.734375,-0.25 1,-0.25 c -0.25,0 -0.3125,0 -0.3125,0.15625 C 0.6875,-0.078125 0.703125,0 0.8125,0 1,0 1.21875,-0.015625 1.40625,-0.015625 1.609375,-0.015625 1.8125,-0.03125 2,-0.03125 c 0.203125,0 0.4375,0 0.640625,0.015625 C 2.828125,-0.015625 3.03125,0 3.21875,0 3.28125,0 3.375,0 3.375,-0.15625 3.375,-0.25 3.3125,-0.25 3.09375,-0.25 c -0.125,0 -0.265625,-0.015625 -0.40625,-0.015625 -0.234375,-0.015625 -0.25,-0.046875 -0.25,-0.125 0,-0.0625 0,-0.0625 0.03125,-0.171875 z m 0,0"
             id="path26419" />
        </g>
      </g>
    </g>
  </g>
</svg>
